<mxfile host="app.diagrams.net" agent="Mozilla/5.0 (Windows NT 10.0; Win64; x64) AppleWebKit/537.36 (KHTML, like Gecko) Chrome/129.0.0.0 Safari/537.36 Edg/129.0.0.0" version="24.7.16">
  <diagram name="PÃ¡gina-1" id="Ue5SnmHRKC7b0mBbZbqP">
    <mxGraphModel dx="316" dy="385" grid="1" gridSize="10" guides="1" tooltips="1" connect="1" arrows="1" fold="1" page="1" pageScale="1" pageWidth="827" pageHeight="1169" math="0" shadow="0">
      <root>
        <mxCell id="0" />
        <mxCell id="1" parent="0" />
        <mxCell id="2kOGzsYonK-Hmrg3IrUl-4" style="edgeStyle=orthogonalEdgeStyle;rounded=0;orthogonalLoop=1;jettySize=auto;html=1;exitX=0.5;exitY=1;exitDx=0;exitDy=0;entryX=0.5;entryY=0;entryDx=0;entryDy=0;" parent="1" source="2kOGzsYonK-Hmrg3IrUl-1" target="2kOGzsYonK-Hmrg3IrUl-3" edge="1">
          <mxGeometry relative="1" as="geometry" />
        </mxCell>
        <mxCell id="2kOGzsYonK-Hmrg3IrUl-1" value="" style="ellipse;whiteSpace=wrap;html=1;aspect=fixed;fillColor=#d5e8d4;strokeColor=#82b366;" parent="1" vertex="1">
          <mxGeometry x="389" y="30" width="50" height="50" as="geometry" />
        </mxCell>
        <mxCell id="2kOGzsYonK-Hmrg3IrUl-9" style="edgeStyle=orthogonalEdgeStyle;rounded=0;orthogonalLoop=1;jettySize=auto;html=1;exitX=1;exitY=0.5;exitDx=0;exitDy=0;" parent="1" source="2kOGzsYonK-Hmrg3IrUl-3" target="2kOGzsYonK-Hmrg3IrUl-8" edge="1">
          <mxGeometry relative="1" as="geometry">
            <Array as="points">
              <mxPoint x="494" y="140" />
              <mxPoint x="494" y="290" />
              <mxPoint x="414" y="290" />
            </Array>
          </mxGeometry>
        </mxCell>
        <mxCell id="2kOGzsYonK-Hmrg3IrUl-3" value="Para Cont de 0 a 9" style="shape=hexagon;perimeter=hexagonPerimeter2;whiteSpace=wrap;html=1;fixedSize=1;fillColor=#f5f5f5;fontColor=#333333;strokeColor=#666666;" parent="1" vertex="1">
          <mxGeometry x="354" y="100" width="120" height="80" as="geometry" />
        </mxCell>
        <mxCell id="2kOGzsYonK-Hmrg3IrUl-7" style="edgeStyle=orthogonalEdgeStyle;rounded=0;orthogonalLoop=1;jettySize=auto;html=1;exitX=0.5;exitY=1;exitDx=0;exitDy=0;exitPerimeter=0;entryX=0;entryY=0.5;entryDx=0;entryDy=0;" parent="1" source="2kOGzsYonK-Hmrg3IrUl-5" target="2kOGzsYonK-Hmrg3IrUl-3" edge="1">
          <mxGeometry relative="1" as="geometry" />
        </mxCell>
        <mxCell id="2kOGzsYonK-Hmrg3IrUl-5" value="A[Cont]" style="shape=card;whiteSpace=wrap;html=1;fillColor=#fff2cc;strokeColor=#d6b656;" parent="1" vertex="1">
          <mxGeometry x="364" y="200" width="100" height="60" as="geometry" />
        </mxCell>
        <mxCell id="2kOGzsYonK-Hmrg3IrUl-6" style="edgeStyle=orthogonalEdgeStyle;rounded=0;orthogonalLoop=1;jettySize=auto;html=1;exitX=0.5;exitY=1;exitDx=0;exitDy=0;entryX=0.5;entryY=0;entryDx=0;entryDy=0;entryPerimeter=0;" parent="1" source="2kOGzsYonK-Hmrg3IrUl-3" target="2kOGzsYonK-Hmrg3IrUl-5" edge="1">
          <mxGeometry relative="1" as="geometry" />
        </mxCell>
        <mxCell id="2kOGzsYonK-Hmrg3IrUl-11" style="edgeStyle=orthogonalEdgeStyle;rounded=0;orthogonalLoop=1;jettySize=auto;html=1;exitX=0.5;exitY=1;exitDx=0;exitDy=0;exitPerimeter=0;entryX=0.5;entryY=0;entryDx=0;entryDy=0;" parent="1" source="2kOGzsYonK-Hmrg3IrUl-8" target="2kOGzsYonK-Hmrg3IrUl-10" edge="1">
          <mxGeometry relative="1" as="geometry" />
        </mxCell>
        <mxCell id="2kOGzsYonK-Hmrg3IrUl-8" value="X" style="shape=card;whiteSpace=wrap;html=1;fillColor=#fff2cc;strokeColor=#d6b656;" parent="1" vertex="1">
          <mxGeometry x="364" y="330" width="100" height="60" as="geometry" />
        </mxCell>
        <mxCell id="2kOGzsYonK-Hmrg3IrUl-13" style="edgeStyle=orthogonalEdgeStyle;rounded=0;orthogonalLoop=1;jettySize=auto;html=1;exitX=0.5;exitY=1;exitDx=0;exitDy=0;entryX=0.5;entryY=0;entryDx=0;entryDy=0;" parent="1" source="2kOGzsYonK-Hmrg3IrUl-10" target="2kOGzsYonK-Hmrg3IrUl-12" edge="1">
          <mxGeometry relative="1" as="geometry" />
        </mxCell>
        <mxCell id="2kOGzsYonK-Hmrg3IrUl-19" style="edgeStyle=orthogonalEdgeStyle;rounded=0;orthogonalLoop=1;jettySize=auto;html=1;exitX=1;exitY=0.5;exitDx=0;exitDy=0;entryX=0;entryY=0.5;entryDx=0;entryDy=0;" parent="1" source="2kOGzsYonK-Hmrg3IrUl-10" target="2kOGzsYonK-Hmrg3IrUl-17" edge="1">
          <mxGeometry relative="1" as="geometry" />
        </mxCell>
        <mxCell id="2kOGzsYonK-Hmrg3IrUl-10" value="Para Cont de 0 a 9" style="shape=hexagon;perimeter=hexagonPerimeter2;whiteSpace=wrap;html=1;fixedSize=1;fillColor=#f5f5f5;fontColor=#333333;strokeColor=#666666;" parent="1" vertex="1">
          <mxGeometry x="354" y="410" width="120" height="80" as="geometry" />
        </mxCell>
        <mxCell id="2kOGzsYonK-Hmrg3IrUl-15" style="edgeStyle=orthogonalEdgeStyle;rounded=0;orthogonalLoop=1;jettySize=auto;html=1;exitX=0.5;exitY=1;exitDx=0;exitDy=0;" parent="1" source="2kOGzsYonK-Hmrg3IrUl-12" target="2kOGzsYonK-Hmrg3IrUl-14" edge="1">
          <mxGeometry relative="1" as="geometry" />
        </mxCell>
        <mxCell id="2kOGzsYonK-Hmrg3IrUl-12" value="M[Cont] = A[Cont] * X" style="rounded=0;whiteSpace=wrap;html=1;fillColor=#e1d5e7;strokeColor=#9673a6;" parent="1" vertex="1">
          <mxGeometry x="349" y="510" width="130" height="60" as="geometry" />
        </mxCell>
        <mxCell id="2kOGzsYonK-Hmrg3IrUl-16" style="edgeStyle=orthogonalEdgeStyle;rounded=0;orthogonalLoop=1;jettySize=auto;html=1;exitX=0;exitY=0.5;exitDx=0;exitDy=0;entryX=0;entryY=0.5;entryDx=0;entryDy=0;" parent="1" source="2kOGzsYonK-Hmrg3IrUl-14" target="2kOGzsYonK-Hmrg3IrUl-10" edge="1">
          <mxGeometry relative="1" as="geometry" />
        </mxCell>
        <mxCell id="2kOGzsYonK-Hmrg3IrUl-14" value="A[Cont] &amp;lt;&amp;lt; &quot; x &quot; &amp;lt;&amp;lt; X &amp;lt;&amp;lt; &quot; = &quot; &amp;lt;&amp;lt; M[Cont]" style="shape=document;whiteSpace=wrap;html=1;boundedLbl=1;fillColor=#dae8fc;strokeColor=#6c8ebf;" parent="1" vertex="1">
          <mxGeometry x="354" y="590" width="120" height="80" as="geometry" />
        </mxCell>
        <mxCell id="2kOGzsYonK-Hmrg3IrUl-17" value="" style="ellipse;whiteSpace=wrap;html=1;aspect=fixed;fillColor=#f8cecc;strokeColor=#b85450;" parent="1" vertex="1">
          <mxGeometry x="500" y="425" width="50" height="50" as="geometry" />
        </mxCell>
      </root>
    </mxGraphModel>
  </diagram>
</mxfile>
